<svg width="84" height="77" viewBox="0 0 84 77" fill="none" xmlns="http://www.w3.org/2000/svg">
<path d="M42.4167 65.2917L42 65.7083L41.5417 65.2917C21.75 47.3333 8.66668 35.4583 8.66668 23.4167C8.66668 15.0833 14.9167 8.83333 23.25 8.83333C29.6667 8.83333 35.9167 13 38.125 18.6667H45.875C48.0833 13 54.3333 8.83333 60.75 8.83333C69.0833 8.83333 75.3333 15.0833 75.3333 23.4167C75.3333 35.4583 62.25 47.3333 42.4167 65.2917ZM60.75 0.5C53.5 0.5 46.5417 3.875 42 9.16667C37.4583 3.875 30.5 0.5 23.25 0.5C10.4167 0.5 0.333344 10.5417 0.333344 23.4167C0.333344 39.125 14.5 52 35.9583 71.4583L42 76.9583L48.0417 71.4583C69.5 52 83.6667 39.125 83.6667 23.4167C83.6667 10.5417 73.5833 0.5 60.75 0.5Z" fill="#EE7F43"/>
</svg>
