<?xml version="1.0" encoding="UTF-8"?>
<!DOCTYPE svg PUBLIC "-//W3C//DTD SVG 1.1//EN" "http://www.w3.org/Graphics/SVG/1.1/DTD/svg11.dtd">
<svg xmlns="http://www.w3.org/2000/svg" version="1.1" width="480px" height="80px" style="shape-rendering:geometricPrecision; text-rendering:geometricPrecision; image-rendering:optimizeQuality; fill-rule:evenodd; clip-rule:evenodd" xmlns:xlink="http://www.w3.org/1999/xlink">
<g><path style="opacity:1" fill="#141414" d="M -0.5,-0.5 C 159.5,-0.5 319.5,-0.5 479.5,-0.5C 479.5,26.1667 479.5,52.8333 479.5,79.5C 319.5,79.5 159.5,79.5 -0.5,79.5C -0.5,52.8333 -0.5,26.1667 -0.5,-0.5 Z"/></g>
<g><path style="opacity:1" fill="#ededed" d="M 280.5,20.5 C 280.66,22.1992 280.494,23.8659 280,25.5C 278.855,26.6843 277.688,26.6843 276.5,25.5C 276.719,24.325 276.386,23.325 275.5,22.5C 273.833,23.5 272.5,24.8333 271.5,26.5C 271.167,25.8333 270.833,25.1667 270.5,24.5C 271.73,21.7087 273.23,19.0421 275,16.5C 278.764,14.9749 280.597,16.3083 280.5,20.5 Z"/></g>
<g><path style="opacity:1" fill="#f0f0f0" d="M 209.5,21.5 C 217.575,20.358 224.408,22.6913 230,28.5C 232.891,34.8969 231.391,40.0636 225.5,44C 222.421,45.4106 219.421,46.9106 216.5,48.5C 218.791,53.2559 222.125,57.0892 226.5,60C 224.93,62.9267 222.596,63.9267 219.5,63C 216.184,58.8287 213.017,54.662 210,50.5C 207.028,54.2456 205.528,58.5789 205.5,63.5C 203.61,63.7035 202.11,63.0368 201,61.5C 200.333,59.1667 200.333,56.8333 201,54.5C 204.155,45.3605 207.489,36.3605 211,27.5C 206.842,28.3294 203.342,30.3294 200.5,33.5C 199.017,30.3884 199.35,27.5551 201.5,25C 204.158,23.522 206.825,22.3554 209.5,21.5 Z"/></g>
<g><path style="opacity:1" fill="#9b9b9b" d="M 222.5,27.5 C 220.265,27.2053 218.265,27.5386 216.5,28.5C 215.957,28.44 215.624,28.1067 215.5,27.5C 217.973,26.2031 220.307,26.2031 222.5,27.5 Z"/></g>
<g><path style="opacity:1" fill="#4e4e4e" d="M 280.5,20.5 C 281.622,22.2884 281.789,24.2884 281,26.5C 278.955,28.0432 277.455,27.7099 276.5,25.5C 277.688,26.6843 278.855,26.6843 280,25.5C 280.494,23.8659 280.66,22.1992 280.5,20.5 Z"/></g>
<g><path style="opacity:1" fill="#1b1b1b" d="M 216.5,28.5 C 218.265,27.5386 220.265,27.2053 222.5,27.5C 226.775,29.3159 227.608,32.3159 225,36.5C 221.351,40.6591 216.851,43.3258 211.5,44.5C 212.887,39.226 215.22,34.3927 218.5,30C 217.956,29.2828 217.289,28.7828 216.5,28.5 Z"/></g>
<g><path style="opacity:1" fill="#ececec" d="M 228.5,52.5 C 229.924,50.4855 230.59,48.1522 230.5,45.5C 231.787,41.043 234.12,37.2097 237.5,34C 242.076,33.0499 245.076,34.8833 246.5,39.5C 247.365,40.5827 248.365,40.7494 249.5,40C 252.281,33.674 255.448,27.5073 259,21.5C 260.049,20.4829 261.216,20.3162 262.5,21C 265.887,23.0016 267.387,25.835 267,29.5C 263.54,37.2951 258.874,44.2951 253,50.5C 252.333,52.5 252.333,54.5 253,56.5C 255.667,53.8333 258.333,51.1667 261,48.5C 262.369,43.0447 264.869,38.2113 268.5,34C 276.605,34.1125 279.105,37.9458 276,45.5C 274.032,49.1952 271.198,50.1952 267.5,48.5C 265.817,51.6022 265.151,54.9356 265.5,58.5C 271.355,55.4872 276.189,51.1539 280,45.5C 280.667,46.8333 280.667,48.1667 280,49.5C 277.356,55.638 273.189,60.3047 267.5,63.5C 262.831,61.8407 260.331,58.5073 260,53.5C 257.298,58.0834 253.798,61.0834 249.5,62.5C 246.176,56.4815 246.176,50.3149 249.5,44C 248.216,43.3162 247.049,43.4829 246,44.5C 245.275,51.6909 242.442,57.8575 237.5,63C 230.519,63.1738 227.519,59.6738 228.5,52.5 Z"/></g>
<g><path style="opacity:1" fill="#4d4d4d" d="M 262.5,25.5 C 263.573,26.2506 263.74,27.2506 263,28.5C 260.859,33.2542 258.525,37.9209 256,42.5C 257.256,36.5767 259.423,30.9101 262.5,25.5 Z"/></g>
<g><path style="opacity:1" fill="#303030" d="M 272.5,37.5 C 273.707,41.1349 272.54,44.1349 269,46.5C 269.023,43.1108 270.19,40.1108 272.5,37.5 Z"/></g>
<g><path style="opacity:1" fill="#212121" d="M 238.5,40.5 C 241.974,47.0328 240.808,53.0328 235,58.5C 234.387,52.1668 235.554,46.1668 238.5,40.5 Z"/></g>
<g><path style="opacity:1" fill="#a1a1a1" d="M 230.5,45.5 C 230.59,48.1522 229.924,50.4855 228.5,52.5C 228.41,49.8478 229.076,47.5145 230.5,45.5 Z"/></g>
</svg>
